<svg width="124" height="23" viewBox="0 0 124 23" fill="none" xmlns="http://www.w3.org/2000/svg">
<path d="M0.532 22V21.888C2.716 21.076 3.024 20.88 3.024 18.444V5.536C3.024 3.1 2.716 2.904 0.532 2.092V1.98H8.568V2.092C6.384 2.904 6.076 3.1 6.076 5.536V20.46C6.076 21.104 7.308 21.664 9.296 21.664H10.808C12.572 21.664 14.308 19.872 15.54 17.128H15.652L14.98 22H0.532ZM25.9809 22.392V19.396C24.6649 21.188 22.8449 22.336 20.9409 22.336C18.9529 22.336 17.1609 21.16 17.1609 18.472V12.788C17.1609 10.24 16.7689 9.876 15.0889 9.176V9.064C16.6569 8.924 18.2249 8.672 19.7929 8.196C19.7929 11.22 19.7369 14.972 19.7369 17.996C19.7369 20.264 20.8849 21.132 22.2289 21.132C23.5169 21.132 24.8049 20.32 25.8969 19.144V12.788C25.8969 10.212 25.5609 9.876 23.8529 9.176V9.064C25.3929 8.952 26.9889 8.672 28.5289 8.224V18.892C28.5289 20.796 28.8649 20.936 30.5449 21.356V21.524L25.9809 22.392ZM29.4604 22V21.888C31.1124 21.188 31.5044 20.936 31.5044 18.696V5.564C31.5044 2.792 30.9444 2.624 29.4324 1.952V1.84C31.0004 1.728 32.5684 1.448 34.1364 0.971999V15.476L38.8684 11.304C39.2884 10.94 39.4564 10.604 39.4564 10.296C39.4564 9.68 38.7844 9.148 37.8604 8.7V8.588H43.2084V8.7C41.3324 9.764 40.5484 10.212 39.2884 11.332L36.4324 13.824L41.2764 19.956C41.8924 20.768 42.8724 21.524 43.7404 21.888V22H39.6524L34.6124 15.504H34.1364V18.696C34.1364 20.936 34.5004 21.188 36.1804 21.888V22H29.4604ZM48.5831 22.28C44.9151 22.28 42.2551 19.284 42.2551 15.196C42.2551 11.108 44.8311 8.252 48.4711 8.252C51.6911 8.252 53.9871 10.436 53.9871 13.46V13.516H44.7471C44.7191 13.684 44.7191 13.88 44.7191 13.992C44.7191 17.884 46.7351 20.236 49.7871 20.236C51.8591 20.236 53.3431 19.172 53.9871 17.324L54.1551 17.38C53.6231 20.376 51.4671 22.28 48.5831 22.28ZM44.7471 13.236L51.4111 13.18C51.1311 10.548 49.6471 8.56 48.0511 8.56C46.4551 8.56 45.0551 10.492 44.7471 13.236ZM53.7775 22V21.888C56.0735 21.104 56.4095 20.908 56.4095 18.416V5.564C56.4095 3.044 56.0735 2.876 53.7775 2.092V1.98H61.4775V2.092C59.2095 2.876 58.8455 3.044 58.8455 5.564V10.52H68.6455V5.564C68.6455 3.044 68.3095 2.876 66.0415 2.092V1.98H73.7135V2.092C71.4455 2.876 71.1095 3.044 71.1095 5.564V18.416C71.1095 20.908 71.4455 21.104 73.7135 21.888V22H66.0415V21.888C68.3095 21.104 68.6455 20.908 68.6455 18.416V11.5H58.8455V18.416C58.8455 20.908 59.2095 21.104 61.4775 21.888V22H53.7775ZM79.1267 22.28C75.5707 22.28 72.9387 19.256 72.9387 15.196C72.9387 11.192 75.4867 8.28 78.9587 8.28C82.0387 8.28 84.2787 10.52 84.2787 13.46V13.516H74.9267C74.8987 13.684 74.8987 13.908 74.8987 14.02C74.8987 18.08 76.9427 20.516 80.0787 20.516C82.2067 20.516 83.6627 19.424 84.3067 17.436L84.5027 17.492C83.9987 20.404 81.8987 22.28 79.1267 22.28ZM74.9547 13.236L82.1507 13.18C81.8427 10.66 80.1907 8.588 78.5107 8.588C76.8307 8.588 75.3187 10.604 74.9547 13.236ZM94.8277 22.28C93.6237 22.28 92.9517 21.244 93.0357 19.536L93.0077 19.48C92.2797 20.46 90.5717 22.224 88.1077 22.224C85.8397 22.224 84.4957 20.936 84.4957 19.116C84.4957 16.792 87.2397 14.888 93.1197 13.124L93.1757 11.416C93.2317 9.792 92.4757 8.532 90.9637 8.532C89.1717 8.532 87.9117 10.016 87.5197 12.816L85.5597 11.22C86.6517 9.596 88.5837 8.28 91.0197 8.28C93.4557 8.28 95.2477 9.736 95.1917 11.78L94.9677 20.012C94.9397 20.6 95.5277 20.964 95.7797 20.964C96.3397 20.964 96.8717 20.46 97.2077 19.732L97.3197 19.788C96.8997 21.16 96.0037 22.28 94.8277 22.28ZM89.0317 21.272C90.7397 21.272 91.8877 20.348 92.9797 19.172L93.1197 13.348C88.1077 15.028 86.7357 16.764 86.7357 18.78C86.7357 20.376 87.6317 21.272 89.0317 21.272ZM96.1743 22V21.888C97.9663 21.216 98.3583 20.964 98.3583 18.696V5.396C98.3583 2.596 97.7423 2.428 96.1463 1.84V1.728C97.5743 1.616 99.0023 1.364 100.43 0.943999V18.696C100.43 20.964 100.822 21.216 102.586 21.888V22H96.1743ZM106.364 22.224C104.712 22.224 103.144 21.076 103.144 18.556V8.98H101.66V8.952C102.752 8.196 104.264 6.796 105.104 5.312H105.188V8.616H109.276V8.896H105.216L105.16 18.304C105.132 20.712 106.644 21.188 107.484 21.188C108.1 21.188 108.772 20.936 109.528 20.124L109.64 20.264C108.576 21.86 107.624 22.224 106.364 22.224ZM108.264 22V21.888C110.056 21.216 110.448 20.964 110.448 18.696V5.396C110.448 2.596 109.832 2.428 108.236 1.84V1.728C109.664 1.616 111.092 1.364 112.52 0.943999V11.36C113.668 9.652 115.32 8.28 117.504 8.28C119.604 8.28 121.2 9.596 121.2 12.06V18.696C121.2 20.964 121.592 21.216 123.356 21.888V22H116.972V21.888C118.736 21.216 119.128 20.964 119.156 18.696C119.156 16.568 119.184 14.44 119.184 12.816C119.184 10.212 117.924 9.344 116.552 9.344C115.124 9.344 113.724 10.184 112.52 11.864V18.696C112.52 20.964 112.912 21.216 114.676 21.888V22H108.264Z" fill="#3A8289"/>
</svg>
